<svg xmlns="http://www.w3.org/2000/svg" xmlns:xlink="http://www.w3.org/1999/xlink" id="Layer_1" x="0px" y="0px" viewBox="0 0 105.6 21.6" style="enable-background:new 0 0 105.6 21.6;" xml:space="preserve"><style type="text/css">	.st0{fill:#FFFFFF;}	.st1{enable-background:new    ;}	.st2{fill:#3E4B4B;}	.st3{fill:#4285F4;}	.st4{fill:#34A853;}	.st5{fill:#FBBC05;}	.st6{fill:#EA4335;}	.st7{fill:#FFE300;}	.st8{fill:#C9C9C9;}</style><path class="st0" d="M94.4,21.6H11.2c-6,0-10.8-4.8-10.8-10.8l0,0C0.4,4.8,5.3,0,11.2,0h83.1c6,0,10.8,4.8,10.8,10.8l0,0  C105.2,16.8,100.3,21.6,94.4,21.6z"></path><g class="st1">	<path class="st2" d="M26.3,13.2v-1l2.8-4.5h0.8v1.4h-0.5l-1.9,3v0.1h3.9v1H26.3z M29.4,14.5v-1.5l0-0.4V7.8h1.1v6.6H29.4z"></path>	<path class="st2" d="M33.2,14.5c-0.2,0-0.4-0.1-0.5-0.2c-0.1-0.1-0.2-0.3-0.2-0.5c0-0.2,0.1-0.4,0.2-0.5c0.1-0.1,0.3-0.2,0.5-0.2   c0.2,0,0.4,0.1,0.5,0.2c0.1,0.1,0.2,0.3,0.2,0.5c0,0.1,0,0.3-0.1,0.4s-0.2,0.2-0.3,0.3C33.4,14.5,33.3,14.5,33.2,14.5z"></path>	<path class="st2" d="M37.5,14.5c-0.5,0-0.9-0.1-1.3-0.2s-0.7-0.4-0.9-0.7S35,13,35,12.7c0-0.3,0.1-0.5,0.2-0.8   c0.1-0.2,0.3-0.4,0.5-0.6s0.4-0.3,0.7-0.3v0c-0.3-0.1-0.6-0.2-0.8-0.5c-0.2-0.3-0.3-0.6-0.3-0.9c0-0.3,0.1-0.6,0.3-0.9   s0.5-0.5,0.8-0.6c0.3-0.2,0.7-0.2,1.1-0.2c0.4,0,0.8,0.1,1.1,0.2c0.3,0.2,0.6,0.4,0.8,0.6c0.2,0.3,0.3,0.6,0.3,0.9   c0,0.4-0.1,0.7-0.3,0.9c-0.2,0.3-0.5,0.4-0.8,0.5v0c0.3,0,0.5,0.1,0.7,0.3c0.2,0.2,0.4,0.4,0.5,0.6c0.1,0.2,0.2,0.5,0.2,0.8   c0,0.4-0.1,0.7-0.3,1s-0.5,0.5-0.9,0.7C38.4,14.5,38,14.5,37.5,14.5z M37.5,13.6c0.2,0,0.5,0,0.6-0.1c0.2-0.1,0.3-0.2,0.4-0.4   c0.1-0.2,0.2-0.3,0.2-0.5c0-0.2-0.1-0.4-0.2-0.6c-0.1-0.2-0.3-0.3-0.4-0.4c-0.2-0.1-0.4-0.1-0.6-0.1c-0.2,0-0.5,0-0.6,0.1   c-0.2,0.1-0.3,0.2-0.4,0.4c-0.1,0.2-0.2,0.4-0.2,0.6c0,0.2,0,0.4,0.1,0.5c0.1,0.2,0.2,0.3,0.4,0.4C37,13.6,37.2,13.6,37.5,13.6z    M37.5,10.6c0.2,0,0.4,0,0.5-0.1c0.2-0.1,0.3-0.2,0.4-0.3c0.1-0.1,0.1-0.3,0.1-0.5c0-0.2,0-0.4-0.1-0.5C38.3,9,38.2,8.9,38,8.8   c-0.2-0.1-0.3-0.1-0.5-0.1c-0.2,0-0.4,0-0.6,0.1c-0.2,0.1-0.3,0.2-0.4,0.3c-0.1,0.1-0.1,0.3-0.1,0.5c0,0.2,0,0.4,0.1,0.5   s0.2,0.3,0.4,0.3C37.1,10.5,37.3,10.6,37.5,10.6z"></path></g><g transform="matrix(1, 0, 0, 1, 27.009001, -39.238998)">	<path class="st3" d="M-8.1,50.1c0-0.5,0-0.9-0.1-1.4h-7v2.8h4c-0.2,0.9-0.7,1.7-1.5,2.2v1.9h2.4C-8.9,54.3-8.1,52.4-8.1,50.1z"></path>	<path class="st4" d="M-15.2,57.4c2,0,3.7-0.7,4.9-1.8l-2.4-1.9c-0.7,0.4-1.5,0.7-2.5,0.7c-1.9,0-3.6-1.3-4.2-3.1h-2.5v1.9   C-20.6,55.7-18.1,57.4-15.2,57.4z"></path>	<path class="st5" d="M-19.3,51.3c-0.2-0.4-0.2-0.9-0.2-1.4c0-0.5,0.1-1,0.2-1.4v-1.9h-2.5c-0.5,1-0.8,2.1-0.8,3.3   c0,1.2,0.3,2.3,0.8,3.3L-19.3,51.3z"></path>	<path class="st6" d="M-15.2,45.4c1.1,0,2.1,0.4,2.9,1.1l2.1-2.1c-1.3-1.2-3-1.9-5-1.9c-2.9,0-5.4,1.7-6.6,4.1l2.5,1.9   C-18.8,46.7-17.1,45.4-15.2,45.4z"></path></g><path id="Shape-3_00000026135477116930611740000000566833112875888000_" class="st7" d="M51,9.7l-2.1-0.3l-0.9-1.9  c-0.1-0.2-0.5-0.3-0.7-0.2c-0.1,0.1-0.1,0.1-0.2,0.2l-0.9,1.9L44,9.7c-0.3,0-0.5,0.3-0.4,0.6c0,0.1,0.1,0.2,0.1,0.3l1.5,1.5  l-0.4,2.1c-0.1,0.3,0.1,0.5,0.4,0.6c0.1,0,0.2,0,0.3-0.1l1.9-1l1.9,1c0.2,0.1,0.5,0,0.7-0.2c0.1-0.1,0.1-0.2,0.1-0.3l-0.4-2.1  l1.5-1.5c0.2-0.2,0.2-0.5,0-0.7C51.2,9.8,51.1,9.7,51,9.7L51,9.7z"></path><path id="Shape-3_00000125561733072751325820000014829676191734772355_" class="st7" d="M62.2,9.7l-2.1-0.3l-0.9-1.9  c-0.1-0.2-0.5-0.3-0.7-0.2c-0.1,0.1-0.1,0.1-0.2,0.2l-0.9,1.9l-2.1,0.3c-0.3,0-0.5,0.3-0.4,0.6c0,0.1,0.1,0.2,0.1,0.3l1.5,1.5  L56,14.2c-0.1,0.3,0.1,0.5,0.4,0.6c0.1,0,0.2,0,0.3-0.1l1.9-1l1.9,1c0.2,0.1,0.5,0,0.7-0.2c0.1-0.1,0.1-0.2,0.1-0.3l-0.4-2.1  l1.5-1.5c0.2-0.2,0.2-0.5,0-0.7C62.4,9.8,62.3,9.7,62.2,9.7L62.2,9.7z"></path><path id="Shape-3_00000106838925407354134610000016706300939246394244_" class="st7" d="M73.6,9.7l-2.1-0.3l-0.9-1.9  c-0.1-0.2-0.5-0.3-0.7-0.2c-0.1,0.1-0.1,0.1-0.2,0.2l-0.9,1.9l-2.1,0.3c-0.3,0-0.5,0.3-0.4,0.6c0,0.1,0.1,0.2,0.1,0.3l1.5,1.5  l-0.4,2.1c-0.1,0.3,0.1,0.5,0.4,0.6c0.1,0,0.2,0,0.3-0.1l1.9-1l1.9,1c0.2,0.1,0.5,0,0.7-0.2c0.1-0.1,0.1-0.2,0.1-0.3l-0.4-2.1  l1.5-1.5c0.2-0.2,0.2-0.5,0-0.7C73.8,9.8,73.7,9.7,73.6,9.7L73.6,9.7z"></path><path id="Shape-3_00000007420317307240837580000014462156480131611532_" class="st7" d="M84.8,9.7l-2.1-0.3l-0.9-1.9  c-0.1-0.2-0.5-0.3-0.7-0.2c-0.1,0.1-0.1,0.1-0.2,0.2l-0.9,1.9l-2.1,0.3c-0.3,0-0.5,0.3-0.4,0.6c0,0.1,0.1,0.2,0.1,0.3l1.5,1.5  l-0.4,2.1c-0.1,0.3,0.1,0.5,0.4,0.6c0.1,0,0.2,0,0.3-0.1l1.9-1l1.9,1c0.2,0.1,0.5,0,0.7-0.2c0.1-0.1,0.1-0.2,0.1-0.3l-0.4-2.1  l1.5-1.5c0.2-0.2,0.2-0.5,0-0.7C85,9.8,84.9,9.7,84.8,9.7L84.8,9.7z"></path><path id="Shape-3_00000163751183440872385070000000226403732060676480_" class="st7" d="M96.3,9.7l-2.1-0.3l-0.9-1.9  c-0.1-0.2-0.5-0.3-0.7-0.2c-0.1,0.1-0.1,0.1-0.2,0.2l-0.9,1.9l-2.1,0.3c-0.3,0-0.5,0.3-0.4,0.6c0,0.1,0.1,0.2,0.1,0.3l1.5,1.5  l-0.4,2.1c-0.1,0.3,0.1,0.5,0.4,0.6c0.1,0,0.2,0,0.3-0.1l1.9-1l1.9,1c0.2,0.1,0.5,0,0.7-0.2c0.1-0.1,0.1-0.2,0.1-0.3L95,12.1  l1.5-1.5c0.2-0.2,0.2-0.5,0-0.7C96.5,9.8,96.4,9.7,96.3,9.7L96.3,9.7z"></path><path id="Shape-3_00000145763333981115433800000008353927827011461026_" class="st8" d="M96.3,9.7l-2.1-0.3l-0.9-1.9l0,6.5l1.5,0.8  c0.2,0.1,0.5,0,0.7-0.2c0.1-0.1,0.1-0.2,0.1-0.3L95,12.1l1.5-1.5c0.2-0.2,0.2-0.5,0-0.7C96.5,9.8,96.4,9.7,96.3,9.7L96.3,9.7z"></path></svg>