<svg xmlns="http://www.w3.org/2000/svg" width="500" height="500" viewBox="0 0 500 500" fill="none"><g opacity="0.1"><rect width="500" height="500" rx="250" fill="url(#paint0_linear_1126_340)"></rect><g clip-path="url(#clip0_1126_340)"><path d="M213.521 276.689L188.279 262.115C157.785 244.51 142.539 235.707 141.922 222.028C141.306 208.349 155.7 198.211 184.488 177.936L307.431 91.3449C325.635 78.5232 334.737 72.1123 338.446 75.5009C342.154 78.8894 336.587 88.5311 325.454 107.815L273.757 197.355C270.811 202.459 269.338 205.01 270.008 207.511C270.678 210.011 273.23 211.485 278.333 214.431L303.574 229.004C334.068 246.61 349.315 255.412 349.931 269.092C350.547 282.771 336.153 292.908 307.366 313.184L184.423 399.775C166.218 412.596 157.116 419.007 153.408 415.619C149.699 412.23 155.266 402.588 166.399 383.305L218.096 293.764C221.042 288.661 222.515 286.109 221.845 283.609C221.175 281.108 218.624 279.635 213.521 276.689Z" fill="url(#paint1_linear_1126_340)"></path></g></g><g opacity="0.1"><rect x="50" y="50" width="400" height="400" rx="200" fill="url(#paint2_linear_1126_340)"></rect><g clip-path="url(#clip1_1126_340)"><path d="M220.816 271.351L200.623 259.692C176.228 245.608 164.031 238.566 163.538 227.622C163.045 216.679 174.56 208.569 197.59 192.349L295.945 123.076C310.508 112.819 317.79 107.69 320.757 110.401C323.723 113.112 319.27 120.825 310.363 136.252L269.006 207.884C266.649 211.967 265.47 214.008 266.006 216.009C266.542 218.009 268.584 219.188 272.666 221.545L292.86 233.203C317.254 247.288 329.452 254.33 329.945 265.273C330.438 276.217 318.923 284.327 295.893 300.547L295.893 300.547L197.538 369.82C182.974 380.077 175.693 385.206 172.726 382.495C169.76 379.784 174.213 372.071 183.12 356.644L224.477 285.011C226.834 280.929 228.012 278.888 227.476 276.887C226.94 274.887 224.899 273.708 220.816 271.351Z" fill="url(#paint3_linear_1126_340)"></path></g></g><g opacity="0.1"><rect x="100" y="100" width="300" height="300" rx="150" fill="url(#paint4_linear_1126_340)"></rect><g clip-path="url(#clip2_1126_340)"><path d="M228.112 266.013L212.967 257.269C194.671 246.706 185.523 241.424 185.153 233.217C184.784 225.009 193.42 218.927 210.693 206.761L284.458 154.807C295.381 147.114 300.842 143.267 303.067 145.301C305.292 147.334 301.952 153.119 295.272 164.689L264.254 218.413C262.487 221.475 261.603 223.006 262.005 224.506C262.407 226.007 263.938 226.891 267 228.658L282.145 237.402C300.441 247.966 309.589 253.247 309.959 261.455C310.328 269.662 301.692 275.745 284.42 287.91L210.654 339.865C199.731 347.558 194.27 351.404 192.045 349.371C189.82 347.338 193.16 341.553 199.84 329.983L230.858 276.258C232.625 273.197 233.509 271.666 233.107 270.165C232.705 268.665 231.174 267.781 228.112 266.013Z" fill="url(#paint5_linear_1126_340)"></path></g></g><rect x="148" y="149" width="200" height="200" rx="100" fill="url(#paint6_linear_1126_340)"></rect><g clip-path="url(#clip3_1126_340)"><path d="M233.408 259.676L223.312 253.846C211.114 246.804 205.015 243.283 204.769 237.811C204.523 232.34 210.28 228.284 221.795 220.174L270.972 185.538C278.254 180.409 281.895 177.845 283.378 179.2C284.862 180.556 282.635 184.412 278.182 192.126L257.503 227.942C256.324 229.983 255.735 231.004 256.003 232.004C256.271 233.005 257.292 233.594 259.333 234.772L269.43 240.602C281.627 247.644 287.726 251.165 287.972 256.637C288.219 262.108 282.461 266.163 270.946 274.274L221.769 308.91C214.487 314.039 210.846 316.603 209.363 315.247C207.88 313.892 210.106 310.035 214.56 302.322L235.238 266.506C236.417 264.464 237.006 263.444 236.738 262.444C236.47 261.443 235.449 260.854 233.408 259.676Z" fill="url(#paint7_linear_1126_340)"></path></g><defs><linearGradient id="paint0_linear_1126_340" x1="250" y1="0" x2="250" y2="500" gradientUnits="userSpaceOnUse"><stop stop-color="#FEBD17"></stop><stop offset="1" stop-color="#FF9431"></stop></linearGradient><linearGradient id="paint1_linear_1126_340" x1="262.5" y1="245" x2="138.023" y2="432.455" gradientUnits="userSpaceOnUse"><stop stop-color="white"></stop><stop offset="1" stop-color="white" stop-opacity="0.5"></stop></linearGradient><linearGradient id="paint2_linear_1126_340" x1="250" y1="50" x2="250" y2="450" gradientUnits="userSpaceOnUse"><stop stop-color="#FEBD17"></stop><stop offset="1" stop-color="#FF9431"></stop></linearGradient><linearGradient id="paint3_linear_1126_340" x1="260" y1="246" x2="160.418" y2="395.964" gradientUnits="userSpaceOnUse"><stop stop-color="white"></stop><stop offset="1" stop-color="white" stop-opacity="0.5"></stop></linearGradient><linearGradient id="paint4_linear_1126_340" x1="250" y1="100" x2="250" y2="400" gradientUnits="userSpaceOnUse"><stop stop-color="#FEBD17"></stop><stop offset="1" stop-color="#FF9431"></stop></linearGradient><linearGradient id="paint5_linear_1126_340" x1="257.5" y1="247" x2="182.814" y2="359.473" gradientUnits="userSpaceOnUse"><stop stop-color="white"></stop><stop offset="1" stop-color="white" stop-opacity="0.5"></stop></linearGradient><linearGradient id="paint6_linear_1126_340" x1="248" y1="149" x2="248" y2="349" gradientUnits="userSpaceOnUse"><stop stop-color="#FEBD17"></stop><stop offset="1" stop-color="#FF9431"></stop></linearGradient><linearGradient id="paint7_linear_1126_340" x1="253" y1="247" x2="203.209" y2="321.982" gradientUnits="userSpaceOnUse"><stop stop-color="white"></stop><stop offset="1" stop-color="white" stop-opacity="0.5"></stop></linearGradient><clipPath id="clip0_1126_340"><rect width="375" height="375" fill="white" transform="translate(62.5 61.2183)"></rect></clipPath><clipPath id="clip1_1126_340"><rect width="300" height="300" fill="white" transform="translate(100 98.9746)"></rect></clipPath><clipPath id="clip2_1126_340"><rect width="225" height="225" fill="white" transform="translate(137.5 136.731)"></rect></clipPath><clipPath id="clip3_1126_340"><rect width="150" height="150" fill="white" transform="translate(173 173.487)"></rect></clipPath></defs></svg>