<?xml version="1.0" encoding="utf-8"?>
<!-- Generator: Adobe Illustrator 24.1.2, SVG Export Plug-In . SVG Version: 6.00 Build 0)  -->
<svg version="1.1" id="Layer_1" xmlns="http://www.w3.org/2000/svg" xmlns:xlink="http://www.w3.org/1999/xlink" x="0px" y="0px"
	 viewBox="0 0 60 60" style="enable-background:new 0 0 60 60;" xml:space="preserve">
<style type="text/css">
	.st0{fill:#5B1356;}
	.st1{fill:none;stroke:#5B1356;stroke-miterlimit:10;}
	.st2{fill:none;stroke:#5B1356;stroke-width:0.75;stroke-miterlimit:10;}
	.st3{clip-path:url(#SVGID_2_);fill:#5B1356;}
	.st4{clip-path:url(#SVGID_4_);}
	.st5{clip-path:url(#SVGID_8_);fill:#5B1356;}
	.st6{fill:none;stroke:#5B1356;stroke-width:0.5;stroke-miterlimit:10;}
	.st7{fill:none;stroke:#5B1356;stroke-width:1.1166;stroke-miterlimit:10;}
	.st8{fill:none;stroke:#5B1356;stroke-width:1.0173;stroke-miterlimit:10;}
	.st9{fill:none;stroke:#5B1356;stroke-width:1.5;stroke-miterlimit:10;}
</style>
<g>
	<path class="st2" d="M45.8,43.6c0.8,0.9,1.4,1.5,1.4,1.5l2.5-2.5c-0.4-0.5-0.7-1.1-1.1-1.7c0,0,0,0,0,0L45.8,43.6z"/>
	<path class="st2" d="M26.1,16.8c0.3,0.6,0.9,1.4,1.8,2c0.1-0.2,0.3-0.4,0.4-0.7c0.3-0.4,0.6-1,0.7-1.5c-0.2-0.1-0.4-0.2-0.7-0.3
		c-0.6-0.3-1.3-0.7-1.8-1.3c-0.1-0.1-0.2-0.3-0.3-0.4C26.1,14.8,26,14.9,26,15c-0.2,0.3-0.3,0.5-0.4,0.7c0,0.1,0,0.1,0.1,0.2
		C25.7,16.1,25.9,16.4,26.1,16.8z"/>
	<path class="st2" d="M31.7,19.6c-0.1,0.1-0.3,0.1-0.4-0.1c0,0-0.3-0.4-0.7-1c-0.3-0.5-0.6-1.1-0.8-1.8h0h0h0
		c-0.2,0.7-0.5,1.3-0.8,1.8c-0.4,0.6-0.7,1-0.7,1c-0.1,0.1-0.3,0.2-0.4,0.1c-1.2-0.7-1.9-1.7-2.3-2.5c-0.2-0.3-0.3-0.6-0.4-0.8
		c-0.7,0.4-2.7,1.5-4.6,2.3c-0.7,0.3-1.1,0.8-1.4,1.4c-0.3,0.6-0.4,1.1-0.5,1.2l0,0l0,0c0,0-2.5,8.9-5.4,15.7
		c-0.5,1.3-1.1,2.4-1.7,3.5l2.5,2.4c0.5-0.5,1-1.2,1.7-1.9c1.9-2.3,4.2-5.6,5.8-9.2c-0.1-1.3-0.3-2.5-0.4-3.6
		c-0.3-1.9-0.4-3.8-0.4-5.2s0.1-2.4,0.1-2.4c0-0.2,0.2-0.4,0.4-0.3c0.2,0,0.3,0.2,0.3,0.4c0,0,0,0.1,0,0.2c0,0.1,0,0.3,0,0.5
		c0,0.4,0,1,0,1.7c0,1.4,0.1,3.2,0.4,5c0.3,1.8,0.6,4,0.6,6.4c0,3.2-0.4,6.8-1.8,10.6c4.1,1.7,7.6,2.2,10.3,2.2c4.5,0,7.1-1.5,7.9-2
		c-1.5-3.7-2-7.7-2-11.2c0-2.4,0.2-4.6,0.5-6.3c0.6-3.7,1.4-7.5,1.4-7.5c0-0.2,0.2-0.3,0.4-0.3c0.2,0,0.3,0.2,0.3,0.4
		c0,0,0,0.2-0.1,0.6c-0.1,0.4-0.2,1-0.3,1.7c-0.3,1.4-0.6,3.3-0.9,5.1c-0.1,0.8-0.2,1.7-0.3,2.6c2,5.2,5.6,9.9,7.8,12.4
		c0,0,2.9-2.8,3-2.9c-3.6-6.8-7-19-7-19s-0.4-2.2-2.1-2.9c-2.1-0.8-4.1-2-4.7-2.3c-0.1,0.2-0.2,0.7-0.5,1.2
		C33.6,17.9,32.9,18.9,31.7,19.6z M29.7,44.4c-0.2,0-0.3-0.2-0.3-0.4c0-0.2,0.2-0.4,0.3-0.4c0.2,0,0.3,0.2,0.3,0.4
		C30.1,44.2,29.9,44.4,29.7,44.4z M29.7,39.5c-0.2,0-0.3-0.2-0.3-0.4c0-0.2,0.2-0.4,0.3-0.4c0.2,0,0.3,0.2,0.3,0.4
		C30.1,39.3,29.9,39.5,29.7,39.5z M29.7,34.6c-0.2,0-0.3-0.2-0.3-0.4c0-0.2,0.2-0.4,0.3-0.4c0.2,0,0.3,0.2,0.3,0.4
		C30.1,34.5,29.9,34.6,29.7,34.6z M29.7,29.8c-0.2,0-0.3-0.2-0.3-0.4c0-0.2,0.2-0.4,0.3-0.4c0.2,0,0.3,0.2,0.3,0.4
		C30.1,29.6,29.9,29.8,29.7,29.8z M29.7,24.9c-0.2,0-0.3-0.2-0.3-0.4c0-0.2,0.2-0.4,0.3-0.4c0.2,0,0.3,0.2,0.3,0.4
		C30.1,24.7,29.9,24.9,29.7,24.9z M29.7,20c-0.2,0-0.3-0.2-0.3-0.4c0-0.2,0.2-0.4,0.3-0.4c0.2,0,0.3,0.2,0.3,0.4
		C30.1,19.9,29.9,20,29.7,20z"/>
	<path class="st2" d="M29.8,14.7c0,0,1.3,0,2.3,0.3c0.2-0.1,0.3-0.2,0.4-0.4c0.3-0.3,0.4-0.6,0.4-0.9c0-0.1,0-0.1-0.1-0.2
		c0-0.1-0.1-0.2-0.2-0.2c-0.2-0.2-0.6-0.3-1-0.4c-0.8-0.2-1.6-0.2-1.8-0.2h0h0h0c-0.1,0-0.5,0-1,0.1c-0.5,0-1.1,0.1-1.5,0.3
		c-0.3,0.1-0.5,0.3-0.6,0.4c0,0.1-0.1,0.1-0.1,0.2c0,0.3,0.1,0.6,0.4,0.8c0.1,0.2,0.3,0.3,0.5,0.5C28.5,14.7,29.8,14.7,29.8,14.7z"
		/>
	<path class="st2" d="M10.2,42.5l2.1,2.1c0,0,0,0,0,0c0.2-0.2,0.4-0.4,0.7-0.8c0.1-0.1,0.2-0.2,0.3-0.4l-2.3-2.3
		C10.8,41.6,10.5,42.1,10.2,42.5z"/>
	<path class="st2" d="M31.8,16c-0.5,0.3-1,0.5-1.3,0.6c0.1,0.5,0.4,1,0.6,1.4c0.2,0.3,0.4,0.6,0.5,0.8c0.9-0.6,1.4-1.3,1.8-2
		c0.3-0.5,0.4-0.9,0.5-1.2c-0.1-0.1-0.2-0.4-0.4-0.7c-0.1-0.1-0.1-0.2-0.2-0.4c-0.1,0.2-0.2,0.3-0.3,0.4
		C32.6,15.5,32.2,15.8,31.8,16z"/>
</g>
</svg>
