<?xml version="1.0" encoding="utf-8"?>
<!-- Generator: Adobe Illustrator 24.1.2, SVG Export Plug-In . SVG Version: 6.00 Build 0)  -->
<svg version="1.1" id="Layer_1" xmlns="http://www.w3.org/2000/svg" xmlns:xlink="http://www.w3.org/1999/xlink" x="0px" y="0px"
	 viewBox="0 0 60 60" style="enable-background:new 0 0 60 60;" xml:space="preserve">
<style type="text/css">
	.st0{fill:#5B1356;}
	.st1{fill:none;stroke:#5B1356;stroke-miterlimit:10;}
	.st2{fill:none;stroke:#5B1356;stroke-width:0.75;stroke-miterlimit:10;}
	.st3{clip-path:url(#SVGID_2_);fill:#5B1356;}
	.st4{clip-path:url(#SVGID_4_);}
	.st5{clip-path:url(#SVGID_8_);fill:#5B1356;}
	.st6{fill:none;stroke:#5B1356;stroke-width:0.5;stroke-miterlimit:10;}
	.st7{fill:none;stroke:#5B1356;stroke-width:1.1166;stroke-miterlimit:10;}
	.st8{fill:none;stroke:#5B1356;stroke-width:1.0173;stroke-miterlimit:10;}
	.st9{fill:none;stroke:#5B1356;stroke-width:1.5;stroke-miterlimit:10;}
</style>
<g>
	<g>
		<g>
			<path class="st0" d="M30,44.1c-0.2,0-0.3-0.1-0.4-0.2L10.9,25.3c-0.2-0.2-0.2-0.6,0-0.9s0.6-0.2,0.9,0l18.6,18.6
				c0.2,0.2,0.2,0.6,0,0.8C30.3,44.1,30.2,44.1,30,44.1L30,44.1z"/>
		</g>
	</g>
	<g>
		<g>
			<path class="st0" d="M11.4,25.5c-0.3,0-0.6-0.3-0.6-0.6c0-0.2,0.1-0.3,0.2-0.4L22.4,13c0.2-0.2,0.6-0.2,0.9,0
				c0.2,0.2,0.2,0.6,0,0.9L11.8,25.3C11.7,25.4,11.5,25.5,11.4,25.5z"/>
		</g>
	</g>
	<g>
		<g>
			<path class="st0" d="M30,44.1c-0.3,0-0.6-0.3-0.6-0.6c0-0.2,0.1-0.3,0.2-0.4l18.6-18.6c0.2-0.2,0.6-0.2,0.9,0
				c0.2,0.2,0.2,0.6,0,0.9l0,0L30.4,44C30.3,44.1,30.2,44.1,30,44.1L30,44.1z"/>
		</g>
	</g>
	<g>
		<g>
			<path class="st0" d="M48.6,25.5c-0.2,0-0.3-0.1-0.4-0.2L36.8,13.9c-0.2-0.2-0.2-0.6,0-0.9c0.2-0.2,0.6-0.2,0.9,0l11.4,11.4
				c0.2,0.2,0.2,0.6,0,0.9C49,25.4,48.8,25.5,48.6,25.5L48.6,25.5z"/>
		</g>
	</g>
	<path class="st0" d="M37.2,14.1H22.8c-0.3,0-0.6-0.3-0.6-0.6c0-0.3,0.3-0.6,0.6-0.6h14.4c0.3,0,0.6,0.3,0.6,0.6
		C37.8,13.8,37.5,14.1,37.2,14.1z"/>
	<path class="st0" d="M30,19.5c-0.2,0-0.3-0.1-0.4-0.2l-5.4-5.4c-0.2-0.2-0.2-0.6,0-0.9c0.2-0.2,0.6-0.2,0.9,0l5.4,5.4
		c0.2,0.2,0.2,0.6,0,0.9C30.3,19.4,30.2,19.5,30,19.5z"/>
	<path class="st0" d="M30,19.5c-0.3,0-0.6-0.3-0.6-0.6c0-0.2,0.1-0.3,0.2-0.4L35,13c0.2-0.2,0.6-0.2,0.9,0c0.2,0.2,0.2,0.6,0,0.9
		l-5.4,5.4C30.3,19.4,30.2,19.5,30,19.5L30,19.5z M30,41.6c-0.2,0-0.3-0.1-0.4-0.2L12.2,24.1c-0.2-0.2-0.2-0.6,0-0.9
		c0.2-0.2,0.6-0.2,0.9,0l17.4,17.4c0.2,0.2,0.2,0.6,0,0.8C30.3,41.6,30.2,41.6,30,41.6L30,41.6z"/>
	<path class="st0" d="M30,41.6c-0.3,0-0.6-0.3-0.6-0.6c0-0.2,0.1-0.3,0.2-0.4L47,23.2c0.2-0.2,0.6-0.2,0.9,0c0.2,0.2,0.2,0.6,0,0.9
		L30.4,41.5C30.3,41.6,30.2,41.6,30,41.6L30,41.6z M30,36.5c-0.2,0-0.3-0.1-0.4-0.2L14.7,21.5c-0.2-0.2-0.2-0.6,0-0.9s0.6-0.2,0.9,0
		l0,0l14.9,14.9c0.2,0.2,0.2,0.6,0,0.9C30.3,36.5,30.2,36.5,30,36.5z"/>
	<path class="st0" d="M30,36.5c-0.3,0-0.6-0.3-0.6-0.6c0-0.2,0.1-0.3,0.2-0.4l14.8-14.9c0.2-0.2,0.6-0.2,0.9,0
		c0.2,0.2,0.2,0.6,0,0.9l0,0L30.4,36.4C30.3,36.5,30.2,36.5,30,36.5L30,36.5z M16,25.1h-2.5c-0.3,0-0.6-0.3-0.6-0.6s0.3-0.6,0.6-0.6
		H16c0.3,0,0.6,0.3,0.6,0.6S16.3,25.1,16,25.1z"/>
	<path class="st0" d="M16,25.1c-0.3,0-0.6-0.3-0.6-0.6v-2.5c0-0.3,0.3-0.6,0.6-0.6s0.6,0.3,0.6,0.6v2.5C16.6,24.8,16.3,25.1,16,25.1
		L16,25.1z M18.9,28h-2.5c-0.3,0-0.6-0.3-0.6-0.6s0.3-0.6,0.6-0.6h2.5c0.3,0,0.6,0.3,0.6,0.6S19.3,28,18.9,28z"/>
	<path class="st0" d="M18.9,28c-0.3,0-0.6-0.3-0.6-0.6v-2.5c0-0.3,0.3-0.6,0.6-0.6s0.6,0.3,0.6,0.6v2.5C19.5,27.8,19.3,28,18.9,28
		C18.9,28,18.9,28,18.9,28L18.9,28z M21.9,31h-2.5c-0.3,0-0.6-0.3-0.6-0.6s0.3-0.6,0.6-0.6h2.5c0.3,0,0.6,0.3,0.6,0.6
		S22.3,31,21.9,31z"/>
	<path class="st0" d="M21.9,31c-0.3,0-0.6-0.3-0.6-0.6v-2.5c0-0.3,0.3-0.6,0.6-0.6s0.6,0.3,0.6,0.6l0,0v2.5
		C22.5,30.8,22.3,31,21.9,31L21.9,31z M24.9,34h-2.5c-0.3,0-0.6-0.3-0.6-0.6c0-0.3,0.3-0.6,0.6-0.6l0,0h2.5c0.3,0,0.6,0.3,0.6,0.6
		C25.5,33.7,25.2,34,24.9,34z"/>
	<path class="st0" d="M24.9,34c-0.3,0-0.6-0.3-0.6-0.6v-2.5c0-0.3,0.3-0.6,0.6-0.6s0.6,0.3,0.6,0.6l0,0v2.5
		C25.5,33.7,25.2,34,24.9,34L24.9,34z M27.9,37h-2.5c-0.3,0-0.6-0.3-0.6-0.6c0-0.3,0.3-0.6,0.6-0.6h2.5c0.3,0,0.6,0.3,0.6,0.6
		C28.5,36.7,28.2,37,27.9,37z"/>
	<path class="st0" d="M27.9,37c-0.3,0-0.6-0.3-0.6-0.6v-2.5c0-0.3,0.3-0.6,0.6-0.6s0.6,0.3,0.6,0.6v2.5C28.5,36.7,28.2,37,27.9,37
		L27.9,37z M44,25.1c-0.3,0-0.6-0.3-0.6-0.6v-2.5c0-0.3,0.3-0.6,0.6-0.6c0.3,0,0.6,0.3,0.6,0.6v2.5C44.6,24.8,44.4,25.1,44,25.1
		C44,25.1,44,25.1,44,25.1z"/>
	<path class="st0" d="M46.6,25.1H44c-0.3,0-0.6-0.3-0.6-0.6s0.3-0.6,0.6-0.6h2.5c0.3,0,0.6,0.3,0.6,0.6S46.9,25.1,46.6,25.1z
		 M41.1,28c-0.3,0-0.6-0.3-0.6-0.6v-2.5c0-0.3,0.3-0.6,0.6-0.6c0.3,0,0.6,0.3,0.6,0.6v2.5C41.7,27.8,41.4,28,41.1,28z"/>
	<path class="st0" d="M43.6,28h-2.5c-0.3,0-0.6-0.3-0.6-0.6s0.3-0.6,0.6-0.6h2.5c0.3,0,0.6,0.3,0.6,0.6S43.9,28,43.6,28z M38.1,31
		c-0.3,0-0.6-0.3-0.6-0.6v-2.5c0-0.3,0.3-0.6,0.6-0.6c0.3,0,0.6,0.3,0.6,0.6v2.5C38.7,30.7,38.4,31,38.1,31C38.1,31,38.1,31,38.1,31
		z"/>
	<path class="st0" d="M40.6,31h-2.5c-0.3,0-0.6-0.3-0.6-0.6s0.3-0.6,0.6-0.6h2.5c0.3,0,0.6,0.3,0.6,0.6S41,31,40.6,31z M35.1,34
		c-0.3,0-0.6-0.3-0.6-0.6v-2.5c0-0.3,0.3-0.6,0.6-0.6c0.3,0,0.6,0.3,0.6,0.6l0,0v2.5C35.7,33.7,35.4,34,35.1,34L35.1,34z"/>
	<path class="st0" d="M37.6,34h-2.5c-0.3,0-0.6-0.3-0.6-0.6c0-0.3,0.3-0.6,0.6-0.6h2.5c0.3,0,0.6,0.3,0.6,0.6
		C38.3,33.7,38,34,37.6,34z M32.1,37c-0.3,0-0.6-0.3-0.6-0.6v-2.5c0-0.3,0.3-0.6,0.6-0.6c0.3,0,0.6,0.3,0.6,0.6v2.5
		C32.7,36.7,32.5,37,32.1,37C32.1,37,32.1,37,32.1,37z"/>
	<path class="st0" d="M34.7,37h-2.5c-0.3,0-0.6-0.3-0.6-0.6c0-0.3,0.3-0.6,0.6-0.6h2.5c0.3,0,0.6,0.3,0.6,0.6
		C35.3,36.7,35,37,34.7,37z M30,41.6c-0.3,0-0.6-0.3-0.6-0.6v-5.1c0-0.3,0.3-0.6,0.6-0.6s0.6,0.3,0.6,0.6l0,0V41
		C30.6,41.4,30.3,41.6,30,41.6C30,41.6,30,41.6,30,41.6L30,41.6z M18,21.3c-0.3,0-0.6-0.3-0.6-0.6c0-0.3,0.3-0.6,0.6-0.6
		c0,0,0,0,0,0c0.3,0,0.6,0.3,0.6,0.6C18.6,21,18.3,21.3,18,21.3C18,21.3,18,21.3,18,21.3L18,21.3z M20.4,23.7
		c-0.3,0-0.6-0.3-0.6-0.6c0-0.3,0.3-0.6,0.6-0.6h0c0.3,0,0.6,0.3,0.6,0.6C21,23.4,20.7,23.7,20.4,23.7L20.4,23.7z M22.8,26.1
		c-0.3,0-0.6-0.3-0.6-0.6c0-0.3,0.3-0.6,0.6-0.6c0,0,0,0,0,0c0.3,0,0.6,0.3,0.6,0.6S23.1,26.1,22.8,26.1L22.8,26.1z M25.2,28.5
		c-0.3,0-0.6-0.3-0.6-0.6c0-0.3,0.3-0.6,0.6-0.6h0c0.3,0,0.6,0.3,0.6,0.6C25.8,28.2,25.5,28.5,25.2,28.5L25.2,28.5z M27.6,30.9
		c-0.3,0-0.6-0.3-0.6-0.6c0-0.3,0.3-0.6,0.6-0.6c0,0,0,0,0,0c0.3,0,0.6,0.3,0.6,0.6C28.2,30.6,27.9,30.9,27.6,30.9L27.6,30.9z
		 M30,33.3c-0.3,0-0.6-0.3-0.6-0.6c0-0.3,0.3-0.6,0.6-0.6h0c0.3,0,0.6,0.3,0.6,0.6C30.6,33,30.3,33.3,30,33.3L30,33.3z M20.4,18.9
		c-0.3,0-0.6-0.3-0.6-0.6c0-0.3,0.3-0.6,0.6-0.6h0c0.3,0,0.6,0.3,0.6,0.6C21,18.6,20.7,18.9,20.4,18.9L20.4,18.9z M22.8,21.3
		c-0.3,0-0.6-0.3-0.6-0.6c0-0.3,0.3-0.6,0.6-0.6c0,0,0,0,0,0c0.3,0,0.6,0.3,0.6,0.6C23.4,21,23.1,21.3,22.8,21.3L22.8,21.3z
		 M25.2,23.7c-0.3,0-0.6-0.3-0.6-0.6c0-0.3,0.3-0.6,0.6-0.6h0c0.3,0,0.6,0.3,0.6,0.6C25.8,23.4,25.5,23.7,25.2,23.7L25.2,23.7z
		 M27.6,26.1c-0.3,0-0.6-0.3-0.6-0.6c0-0.3,0.3-0.6,0.6-0.6c0,0,0,0,0,0c0.3,0,0.6,0.3,0.6,0.6S27.9,26.1,27.6,26.1L27.6,26.1z
		 M30,28.5c-0.3,0-0.6-0.3-0.6-0.6c0-0.3,0.3-0.6,0.6-0.6h0c0.3,0,0.6,0.3,0.6,0.6C30.6,28.2,30.3,28.5,30,28.5L30,28.5z M32.4,30.9
		c-0.3,0-0.6-0.3-0.6-0.6c0-0.3,0.3-0.6,0.6-0.6c0,0,0,0,0,0c0.3,0,0.6,0.3,0.6,0.6C33,30.6,32.7,30.9,32.4,30.9L32.4,30.9z
		 M22.8,16.5c-0.3,0-0.6-0.3-0.6-0.6c0-0.3,0.3-0.6,0.6-0.6c0,0,0,0,0,0c0.3,0,0.6,0.3,0.6,0.6C23.4,16.2,23.1,16.5,22.8,16.5
		L22.8,16.5z M25.2,18.9c-0.3,0-0.6-0.3-0.6-0.6c0-0.3,0.3-0.6,0.6-0.6h0c0.3,0,0.6,0.3,0.6,0.6C25.8,18.6,25.5,18.9,25.2,18.9
		L25.2,18.9z M27.6,21.3c-0.3,0-0.6-0.3-0.6-0.6c0-0.3,0.3-0.6,0.6-0.6c0,0,0,0,0,0c0.3,0,0.6,0.3,0.6,0.6
		C28.2,21,27.9,21.3,27.6,21.3L27.6,21.3z M30,23.7c-0.3,0-0.6-0.3-0.6-0.6c0-0.3,0.3-0.6,0.6-0.6h0c0.3,0,0.6,0.3,0.6,0.6
		C30.6,23.4,30.3,23.7,30,23.7L30,23.7z M32.4,26.1c-0.3,0-0.6-0.3-0.6-0.6c0-0.3,0.3-0.6,0.6-0.6c0,0,0,0,0,0
		c0.3,0,0.6,0.3,0.6,0.6S32.7,26.1,32.4,26.1L32.4,26.1z M34.8,28.5c-0.3,0-0.6-0.3-0.6-0.6c0-0.3,0.3-0.6,0.6-0.6h0
		c0.3,0,0.6,0.3,0.6,0.6C35.4,28.2,35.2,28.5,34.8,28.5L34.8,28.5L34.8,28.5z M32.4,21.3c-0.3,0-0.6-0.3-0.6-0.6
		c0-0.3,0.3-0.6,0.6-0.6c0,0,0,0,0,0c0.3,0,0.6,0.3,0.6,0.6C33,21,32.7,21.3,32.4,21.3L32.4,21.3z M34.8,23.7
		c-0.3,0-0.6-0.3-0.6-0.6c0-0.3,0.3-0.6,0.6-0.6h0c0.3,0,0.6,0.3,0.6,0.6C35.4,23.4,35.2,23.7,34.8,23.7L34.8,23.7L34.8,23.7z
		 M37.2,26.1c-0.3,0-0.6-0.3-0.6-0.6c0-0.3,0.3-0.6,0.6-0.6h0c0.3,0,0.6,0.3,0.6,0.6S37.6,26.1,37.2,26.1L37.2,26.1z M34.8,18.9
		c-0.3,0-0.6-0.3-0.6-0.6c0-0.3,0.3-0.6,0.6-0.6c0,0,0,0,0,0c0.3,0,0.6,0.3,0.6,0.6C35.4,18.6,35.2,18.9,34.8,18.9L34.8,18.9z
		 M37.2,21.3c-0.3,0-0.6-0.3-0.6-0.6c0-0.3,0.3-0.6,0.6-0.6h0c0.3,0,0.6,0.3,0.6,0.6C37.8,21,37.6,21.3,37.2,21.3L37.2,21.3z
		 M39.6,23.7c-0.3,0-0.6-0.3-0.6-0.6c0-0.3,0.3-0.6,0.6-0.6c0,0,0,0,0,0c0.3,0,0.6,0.3,0.6,0.6C40.2,23.4,40,23.7,39.6,23.7
		L39.6,23.7z M37.2,16.5c-0.3,0-0.6-0.3-0.6-0.6c0-0.3,0.3-0.6,0.6-0.6h0c0.3,0,0.6,0.3,0.6,0.6C37.8,16.2,37.6,16.5,37.2,16.5
		L37.2,16.5z M39.6,18.9c-0.3,0-0.6-0.3-0.6-0.6c0-0.3,0.3-0.6,0.6-0.6c0,0,0,0,0,0c0.3,0,0.6,0.3,0.6,0.6
		C40.2,18.6,40,18.9,39.6,18.9L39.6,18.9z M42,21.3c-0.3,0-0.6-0.3-0.6-0.6c0-0.3,0.3-0.6,0.6-0.6c0,0,0,0,0,0
		c0.3,0,0.6,0.3,0.6,0.6C42.6,21,42.4,21.3,42,21.3L42,21.3z M30,47.1c-0.3,0-0.6-0.3-0.6-0.6v-3c0-0.3,0.3-0.6,0.6-0.6
		c0.3,0,0.6,0.3,0.6,0.6v3C30.6,46.9,30.3,47.1,30,47.1L30,47.1z M33.6,43.5c-0.3,0-0.6-0.3-0.6-0.6v-3c0-0.3,0.3-0.6,0.6-0.6
		c0.3,0,0.6,0.3,0.6,0.6v3C34.2,43.3,33.9,43.5,33.6,43.5L33.6,43.5z M36.6,40.5c-0.3,0-0.6-0.3-0.6-0.6v-3c0-0.3,0.3-0.6,0.6-0.6
		c0.3,0,0.6,0.3,0.6,0.6v3C37.2,40.3,36.9,40.5,36.6,40.5C36.6,40.5,36.6,40.5,36.6,40.5L36.6,40.5z M39.6,37.5
		c-0.3,0-0.6-0.3-0.6-0.6v-3c0-0.3,0.3-0.6,0.6-0.6c0.3,0,0.6,0.3,0.6,0.6v3C40.2,37.2,40,37.5,39.6,37.5
		C39.6,37.5,39.6,37.5,39.6,37.5L39.6,37.5z M42.6,34.5c-0.3,0-0.6-0.3-0.6-0.6v-3c0-0.3,0.3-0.6,0.6-0.6c0.3,0,0.6,0.3,0.6,0.6v3
		C43.2,34.2,43,34.5,42.6,34.5C42.6,34.5,42.6,34.5,42.6,34.5L42.6,34.5z M45.6,31.5c-0.3,0-0.6-0.3-0.6-0.6v-3
		c0-0.3,0.3-0.6,0.6-0.6s0.6,0.3,0.6,0.6v3C46.2,31.2,46,31.5,45.6,31.5L45.6,31.5z M48.6,28.5c-0.3,0-0.6-0.3-0.6-0.6v-3
		c0-0.3,0.3-0.6,0.6-0.6c0.3,0,0.6,0.3,0.6,0.6v3C49.2,28.2,49,28.5,48.6,28.5L48.6,28.5z M26.4,43.5c-0.3,0-0.6-0.3-0.6-0.6v-3
		c0-0.3,0.3-0.6,0.6-0.6s0.6,0.3,0.6,0.6v3C27,43.3,26.7,43.5,26.4,43.5L26.4,43.5z M23.4,40.5c-0.3,0-0.6-0.3-0.6-0.6v-3
		c0-0.3,0.3-0.6,0.6-0.6s0.6,0.3,0.6,0.6v3C24,40.3,23.7,40.5,23.4,40.5L23.4,40.5z M20.4,37.5c-0.3,0-0.6-0.3-0.6-0.6v-3
		c0-0.3,0.3-0.6,0.6-0.6s0.6,0.3,0.6,0.6v3C21,37.2,20.7,37.5,20.4,37.5C20.4,37.5,20.4,37.5,20.4,37.5L20.4,37.5z M17.4,34.5
		c-0.3,0-0.6-0.3-0.6-0.6v-3c0-0.3,0.3-0.6,0.6-0.6c0.3,0,0.6,0.3,0.6,0.6v3C18,34.2,17.7,34.5,17.4,34.5L17.4,34.5z M14.4,31.5
		c-0.3,0-0.6-0.3-0.6-0.6v-3c0-0.3,0.3-0.6,0.6-0.6s0.6,0.3,0.6,0.6v3C15,31.2,14.7,31.5,14.4,31.5L14.4,31.5z M11.4,28.5
		c-0.3,0-0.6-0.3-0.6-0.6v-3c0-0.3,0.3-0.6,0.6-0.6c0.3,0,0.6,0.3,0.6,0.6l0,0v3C12,28.2,11.7,28.5,11.4,28.5L11.4,28.5z"/>
</g>
</svg>
