<?xml version="1.0" encoding="utf-8"?>
<!-- Generator: Adobe Illustrator 24.1.2, SVG Export Plug-In . SVG Version: 6.00 Build 0)  -->
<svg version="1.1" id="Layer_1" xmlns="http://www.w3.org/2000/svg" xmlns:xlink="http://www.w3.org/1999/xlink" x="0px" y="0px"
	 viewBox="0 0 60 60" style="enable-background:new 0 0 60 60;" xml:space="preserve">
<style type="text/css">
	.st0{fill:#5B1356;}
	.st1{fill:none;stroke:#5B1356;stroke-miterlimit:10;}
	.st2{fill:none;stroke:#5B1356;stroke-width:0.75;stroke-miterlimit:10;}
	.st3{clip-path:url(#SVGID_2_);fill:#5B1356;}
	.st4{clip-path:url(#SVGID_4_);}
	.st5{clip-path:url(#SVGID_8_);fill:#5B1356;}
	.st6{fill:none;stroke:#5B1356;stroke-width:0.5;stroke-miterlimit:10;}
	.st7{fill:none;stroke:#5B1356;stroke-width:1.1166;stroke-miterlimit:10;}
	.st8{fill:none;stroke:#5B1356;stroke-width:1.0173;stroke-miterlimit:10;}
	.st9{fill:none;stroke:#5B1356;stroke-width:1.5;stroke-miterlimit:10;}
</style>
<g>
	<path class="st2" d="M26.7,8.4c0.7-0.3,2-0.5,2.8-0.4c0.6,0.3,0.7,0.3,1.4,1.2l1.4-1.2c0.3-0.1,0.5,0,0.7,0C33.3,8,33.8,8,34.2,8.2
		c0.2,0.1,0.5,0.2,0.7,0.3c0.8,0.5,1.3,1,1,2c-0.2,0.6-0.4,1.2-0.8,1.7c-0.9,1.2-1.2,2.5-1.1,4c0,0.4,0.2,0.7,0.2,1.2
		c-1.6,0.7-2.6,1.3-3.4,2.5c0,0.1-0.1,0.1-0.1,0.2c-1-1.4-2.4-2.1-4-2.5c0.1-0.2,0.2-0.7,0.3-0.8c0.5-1.1,0.4-2.3-0.2-3.4
		c-0.2-0.4-0.3-0.9-0.5-1.2c-0.2-0.4-0.4-0.9-0.6-1.3C25.4,9.6,25.6,8.8,26.7,8.4"/>
	<path class="st2" d="M52.4,46.5c-0.4,0.5-0.9,0.9-1.6,0.9c-1.3,0-2.7,0.1-4,0.1c-1.5,0.1-2.6,0.7-3.5,1.9c-0.3,0.4-0.6,0.9-1,1.3
		c-0.9,0.9-2,1-3.2,1c-1.7-0.1-3.3-0.4-4.9-0.8c-1.5-0.3-3.1-0.4-4.6,0c-1.4,0.3-2.7,0.7-4.1,1c-0.9,0.2-1.9,0.4-2.9,0.1
		c-1.3-0.3-2.5-1-3.5-1.8c-1.2-0.9-2.4-1.6-3.9-1.8c-1.4-0.2-2.6-0.6-3.9-1.1c-0.8-0.3-1.4-0.8-1.7-1.7c-0.2-0.8-0.7-1.4-1.3-2
		c-0.3-0.3-0.5-0.6-0.6-1c-0.2-0.6,0-1,0.6-1.3c0.4-0.2,0.9-0.5,1.3-0.7c1.4-0.8,2.4-2,2.7-3.7c0.1-0.9,0.6-1.6,1.3-2.2
		c0.3-0.3,0.7-0.6,1-0.9c0.9-0.8,1.5-1.6,1.7-2.8c0.3-1.8,1.1-3.2,2.7-4.1c0.6-0.4,0.9-1.1,1-1.8c0-0.3,0.1-0.7,0.1-1
		c0-1,0.4-1.7,1.3-2.1c0.7-0.3,1.4-0.7,2-1.2c0.4-0.3,0.9-0.7,1.1-1.2c0.4-1.1,1.6-1.8,3-1.5c1,0.2,1.3,0.5,2.1,1.1
		c0.4,0.3,0.9,0.9,1.2,1.1c0.4-0.5,1.2-1.1,1.6-1.5c1.3-1.3,2.8-1.2,4,0.1c0.1,0.1,0.2,0.2,0.2,0.4c0.1,0.8,0.6,1.2,1.2,1.6
		c1.8,1.2,3,2.8,3.6,4.9c0.6,2.1,1.5,4.1,2.8,5.8c1,1.3,2.1,2.5,3.2,3.8c0.7,0.9,1.3,1.8,1.4,2.9c0.1,1,0.3,2,0.4,3.1
		c0.1,0.8,0.4,1.5,1.1,2c0.9,0.8,1.7,1.7,2.1,2.9V46.5z"/>
</g>
</svg>
