<?xml version="1.0" encoding="utf-8"?>
<!-- Generator: Adobe Illustrator 24.1.2, SVG Export Plug-In . SVG Version: 6.00 Build 0)  -->
<svg version="1.1" id="Layer_1" xmlns="http://www.w3.org/2000/svg" xmlns:xlink="http://www.w3.org/1999/xlink" x="0px" y="0px"
	 viewBox="0 0 60 60" style="enable-background:new 0 0 60 60;" xml:space="preserve">
<style type="text/css">
	.st0{fill:#5B1356;}
	.st1{fill:none;stroke:#5B1356;stroke-miterlimit:10;}
	.st2{fill:none;stroke:#5B1356;stroke-width:0.75;stroke-miterlimit:10;}
	.st3{clip-path:url(#SVGID_2_);fill:#5B1356;}
	.st4{clip-path:url(#SVGID_4_);}
	.st5{clip-path:url(#SVGID_8_);fill:#5B1356;}
	.st6{fill:none;stroke:#5B1356;stroke-width:0.5;stroke-miterlimit:10;}
	.st7{fill:none;stroke:#5B1356;stroke-width:1.1166;stroke-miterlimit:10;}
	.st8{fill:none;stroke:#5B1356;stroke-width:1.0173;stroke-miterlimit:10;}
	.st9{fill:none;stroke:#5B1356;stroke-width:1.5;stroke-miterlimit:10;}
</style>
<g>
	<path class="st0" d="M31.4,47.4c-2.7,0-5.5,0.3-7.4,0.5c1.1,0.1,2.4,0.2,3.7,0.2c2.8,0,5.7-0.2,7.6-0.4
		C34.2,47.4,32.8,47.4,31.4,47.4z"/>
	<path class="st0" d="M39.6,29.6c0-0.1-0.1-0.2-0.1-0.3c0,0.2,0,0.5,0.1,0.7c0,0,0.1-0.1,0.1-0.1C39.6,29.9,39.6,29.8,39.6,29.6z"/>
	<path class="st0" d="M45.9,29.6c-0.2-1.7-0.8-3.8-1.5-5.8c-0.7-2.1-1.6-4.1-2.4-5.4c-0.2-0.3-0.4-0.8-0.7-1.2
		c-0.3-0.4-0.6-0.9-0.9-1.2c-1.1-1-2.1-1.5-3.3-1.8c-1.6-0.5-3.2-0.7-4.6-0.8c-0.1-0.1-0.1-0.3-0.2-0.6c-0.1-0.4-0.3-1-0.3-1.5
		c0-0.2,0-0.4,0.1-0.6c0,0,0,0,0,0c0,0,0,0,0,0c0-0.1,0-0.1,0-0.1c0,0,0,0,0,0c0-0.1-0.1-0.1-0.1-0.2c0,0,0,0,0,0c0,0,0,0,0,0
		c0,0-0.1-0.1-0.1-0.1c0,0,0,0-0.1,0c0,0,0,0,0,0c0,0-0.4-0.1-1-0.1c-1.2,0-3.5,0.2-6.5,1.2c0,0,0,0,0,0c0,0,0,0-0.1,0
		c0,0-0.1,0.1-0.1,0.1c0,0,0,0,0,0c0,0,0,0,0,0c0,0.1-0.1,0.1-0.1,0.2c0,0,0,0,0,0c0,0.1,0,0.1,0,0.2c0,0,0,0,0,0c0,0,0,0,0,0l0,0
		c0,0,0.1,0.3,0.2,0.6c0.1,0.3,0.2,0.7,0.2,1.1c0,0.2,0,0.4-0.1,0.6c-1.3,0.4-2.7,1.1-3.9,2.1c-1.3,1.1-2.5,2.6-3.1,4.7
		c-1.2,3.8-2,9.8-2.6,15.4c-0.6,5.6-0.8,10.6-0.8,12.4c0,0.1,0,0.2,0,0.2c0,0,0,0.1,0,0.1c0,0,0,0.1,0,0.1c0,0,0,0.1,0.1,0.1
		c0,0,0,0,0,0c0,0,0.1,0.1,0.1,0.1l0,0c1.5,0.6,3.1,0.7,4,0.7c0.4,0,0.6,0,0.7,0c0,0,0,0,0,0c0,0,0,0,0,0c0.1,0,0.1,0,0.2-0.1
		c0,0,0,0,0,0c0,0,0,0,0,0c0,0,0.1-0.1,0.1-0.1c0,0,0,0,0-0.1c0,0,0-0.1,0-0.1c0,0,0,0,0,0c0,0,0-0.2,0-0.5c0-1,0.1-3.6,0.4-6.5
		c0.2-2.1,0.5-4.4,0.9-6.2c0.1,0.7,0.2,1.4,0.3,2.1c0.5,3.1,0.6,5.1,0.6,6.5c0,1.3-0.1,2-0.2,2.3c-0.1,0.2-0.1,0.2-0.1,0.3l0,0l0,0
		c0,0,0,0-0.1,0.1c0,0,0,0,0,0c0,0,0,0.1-0.1,0.1c0,0,0,0,0,0c0,0,0,0,0,0c0,0,0,0.1,0,0.1c0,0,0,0,0,0.1c0,0,0,0,0,0.1c0,0,0,0,0,0
		c0,0,0,0,0,0.1c0,0,0,0,0.1,0.1c0,0,0,0,0,0c0,0,0.1,0,0.1,0c0,0,0,0,0,0c0,0,0,0,0,0c0,0,0,0,0,0c1.8,0.5,4,0.7,6.4,0.7
		c5,0,10.2-0.8,10.2-0.8c0,0,0,0,0.1,0c0,0,0,0,0.1,0c0,0,0,0,0,0c0,0,0,0,0.1-0.1c0,0,0,0,0.1-0.1c0,0,0-0.1,0-0.1c0,0,0,0,0-0.1
		c0,0,0,0,0,0c0,0,0,0,0,0c0.1-0.2,1.4-4.6,1.5-11.6c0.7-0.2,1.3-0.5,1.9-0.7c1.2-0.5,2.3-0.9,2.9-1.3c0.5-0.3,0.9-0.7,1.1-1.1
		c0.2-0.4,0.3-0.9,0.3-1.5C46.1,31.1,46,30.5,45.9,29.6z M24.1,47.9c1.9-0.3,4.6-0.5,7.4-0.5c1.4,0,2.7,0.1,4,0.3
		c-2,0.2-4.8,0.4-7.6,0.4C26.5,48.1,25.2,48,24.1,47.9z M45,32.7c-0.1,0.3-0.4,0.5-0.8,0.8c-0.6,0.3-1.6,0.8-2.8,1.2
		c-1.8,0.7-4,1.4-5.7,1.9c-0.9,0.3-1.6,0.5-2.1,0.7c-0.2,0.1-0.3,0.1-0.4,0.1c-0.1-0.2-0.2-0.6-0.3-1c-0.2-0.7-0.6-1.4-1-2.2
		c0.7-0.3,1.9-0.7,3.3-1.3c1-0.4,2.1-0.9,3-1.3c0.9-0.4,1.8-0.9,2.3-1.2c0.2-0.1,0.2-0.3,0.2-0.5c0,0-0.7-2.5-1.8-5.1c0,0,0,0,0-0.1
		c0-0.1,0-0.1-0.1-0.2c-0.2-0.5-0.4-1-0.7-1.6c-0.1-0.2-0.4-0.3-0.6-0.2c-0.2,0.1-0.3,0.4-0.2,0.6c0.2,0.6,0.5,1.1,0.7,1.7
		c0.3,1.8,0.6,3.6,0.7,5.3c-0.3,0.1-0.6,0.3-0.9,0.5c-1.4,0.6-3.1,1.3-4.4,1.9c-0.7,0.3-1.3,0.5-1.7,0.7c-0.4,0.2-0.7,0.3-0.7,0.3
		c0,0,0,0,0,0c0,0-0.1,0-0.1,0.1c0,0,0,0,0,0.1c0,0,0,0.1-0.1,0.1c0,0,0,0,0,0c0,0,0,0,0,0c0,0,0,0.1,0,0.1c0,0,0,0,0,0.1
		c0,0,0,0,0,0c0,0,0.5,2.1,1.8,4c0,0,0,0,0,0c0,0,0,0,0.1,0.1c0,0,0,0,0.1,0.1c0,0,0,0,0,0c0,0,0,0,0.1,0c0,0,0.1,0,0.1,0
		c0,0,0.1,0,0.1,0c0,0,0.1,0,0.1,0c0,0,0,0,0,0c0,0,2.3-0.7,4.9-1.5c0.4-0.1,0.7-0.2,1.1-0.4c0,3-0.3,5.5-0.6,7.4
		c-0.7-0.2-3-0.9-6.3-0.9c-0.5,0-1.1,0-1.7,0.1c-0.2,0-0.4,0.2-0.4,0.5c0,0.2,0.2,0.4,0.5,0.4c0.6,0,1.1-0.1,1.6-0.1
		c1.9,0,3.5,0.2,4.5,0.5c0.5,0.1,1,0.2,1.2,0.3c0.1,0,0.2,0.1,0.3,0.1l0,0c-0.2,0.9-0.3,1.6-0.4,2c0,0.2-0.1,0.3-0.1,0.4
		c-1.8-0.5-4-0.7-6.2-0.7c-3.8,0-7.6,0.5-9.2,0.8c0-0.1,0-0.1,0-0.2c0.1-0.5,0.2-1.2,0.2-2.2c0-1.4-0.2-3.5-0.6-6.6
		c-0.9-5.5-1.1-10-1.1-13c0-1.5,0-2.6,0.1-3.4c0-0.4,0-0.7,0.1-0.9c0-0.1,0-0.2,0-0.2c0,0,0-0.1,0-0.1c0-0.2-0.1-0.5-0.4-0.5
		c-0.2,0-0.5,0.1-0.5,0.4c0,0-0.2,1.7-0.2,4.7c0,2.2,0.1,5.2,0.5,8.8c0,0,0,0,0,0c-0.4,1.3-0.8,2.8-1,4.5c-0.6,4.1-0.9,8.6-0.9,10.2
		c-0.2-0.1-0.5-0.1-0.8-0.2c-1.1-0.2-2.2-0.3-2.9-0.3c0-1.9,0.3-6.8,0.8-12.1c0.6-5.5,1.4-11.6,2.5-15.2c0.6-1.9,1.6-3.3,2.9-4.3
		c1.2-1,2.7-1.7,4-2.1c0.2-0.1,0.4-0.3,0.3-0.5c0,0,0-0.1-0.1-0.1c0-0.2,0.1-0.4,0.1-0.6c0-0.5-0.1-1-0.2-1.4c0,0,0,0,0,0
		c1.5,0,3.2-0.3,4.5-0.6c0.7-0.1,1.3-0.3,1.7-0.4c0,0.1,0,0.1,0,0.2c0,0.7,0.2,1.3,0.4,1.8c0.1,0.2,0.1,0.3,0.2,0.5c0,0,0,0,0,0
		c-1,0.6-2,0.8-2.9,1c-0.2,0.1-0.4,0.3-0.3,0.5c0.1,0.2,0.3,0.4,0.5,0.3c0.8-0.2,2.2-0.4,3.4-1.2c1.3,0.1,2.9,0.4,4.4,0.8
		c0,0,0.1,0,0.1,0c-0.2,0.5-0.6,1.5-0.6,3c0,0.4,0,0.9,0.1,1.4c0,0.2,0.3,0.4,0.5,0.4c0.2,0,0.4-0.3,0.4-0.5
		c-0.1-0.4-0.1-0.9-0.1-1.2c0-0.9,0.2-1.7,0.3-2.2c0.1-0.2,0.1-0.4,0.2-0.5c0.7,0.3,1.3,0.6,2,1.3c0.2,0.2,0.5,0.6,0.8,1
		c0.3,0.4,0.5,0.9,0.7,1.2c0.7,1.3,1.6,3.3,2.3,5.3c0.7,2,1.3,4.1,1.5,5.7c0.1,0.8,0.2,1.4,0.2,1.9C45.2,32.2,45.2,32.5,45,32.7z
		 M39.5,29.3c0,0.1,0.1,0.2,0.1,0.3c0,0.1,0.1,0.2,0.1,0.3c0,0-0.1,0.1-0.1,0.1C39.5,29.8,39.5,29.6,39.5,29.3z"/>
</g>
</svg>
