<?xml version="1.0" encoding="utf-8"?>
<!-- Generator: Adobe Illustrator 24.1.2, SVG Export Plug-In . SVG Version: 6.00 Build 0)  -->
<svg version="1.1" id="Layer_1" xmlns="http://www.w3.org/2000/svg" xmlns:xlink="http://www.w3.org/1999/xlink" x="0px" y="0px"
	 viewBox="0 0 60 60" style="enable-background:new 0 0 60 60;" xml:space="preserve">
<style type="text/css">
	.st0{fill:#5B1356;}
	.st1{fill:none;stroke:#5B1356;stroke-miterlimit:10;}
	.st2{fill:none;stroke:#5B1356;stroke-width:0.75;stroke-miterlimit:10;}
	.st3{clip-path:url(#SVGID_2_);fill:#5B1356;}
	.st4{clip-path:url(#SVGID_4_);}
	.st5{clip-path:url(#SVGID_8_);fill:#5B1356;}
	.st6{fill:none;stroke:#5B1356;stroke-width:0.5;stroke-miterlimit:10;}
	.st7{fill:none;stroke:#5B1356;stroke-width:1.1166;stroke-miterlimit:10;}
	.st8{fill:none;stroke:#5B1356;stroke-width:1.0173;stroke-miterlimit:10;}
	.st9{fill:none;stroke:#5B1356;stroke-width:1.5;stroke-miterlimit:10;}
</style>
<g>
	<path class="st1" d="M36.2,10.7c0.1,0,0.2,0,0.3,0.1c0,0.2,0.1,0.6,0.2,1.2c-1-0.2-3.3-0.7-6.2-0.7l0-0.6c0-0.1,0-0.1,0-0.2
		c0,0,0-0.1,0-0.1l0-0.2c0-0.1,0-0.2-0.1-0.2c1.6,0.1,3.1,0.2,4.2,0.4C35.3,10.5,35.8,10.6,36.2,10.7z M29.5,9.9
		c0,0.1-0.1,0.2-0.1,0.3l0,0.2c0,0,0,0.1,0,0.1c0,0.1,0,0.1,0,0.2l0,0.6c0,0,0,0-0.1,0c-2,0-4.1,0.2-6.2,0.8c0-0.1,0-0.2,0-0.3
		c0.1-0.4,0.1-0.7,0.1-0.9c0,0,0,0,0,0C25.4,10.1,27.5,9.9,29.5,9.9C29.5,9.9,29.5,9.9,29.5,9.9z M29.1,14.2l1.9,0
		c-0.1-1.1-0.1-1.8-0.2-2.4c0,0,0-0.1-0.1-0.1c1.6,0.1,3,0.2,4,0.4c0.7,0.1,1.2,0.2,1.6,0.3c0.1,0,0.2,0,0.3,0.1
		c0.3,2.7,0.9,7.9,0.9,14.5c0,6.6-0.6,14.6-2.4,22.5c-0.1,0.1-0.3,0.2-0.5,0.3c-0.3,0.2-0.8,0.4-1.3,0.4c-0.3,0-0.6-0.1-0.9-0.2
		c-0.3-0.1-0.6-0.3-0.9-0.6c0.1-1.1,0.6-6.4,0.6-12.5c0-5.2-0.3-11-1.5-15.3c0,0,0-0.1,0-0.1c0,0,0,0,0-0.1
		c-0.1-0.2-0.1-0.4-0.2-0.6c-0.1-0.2-0.2-0.3-0.4-0.3c-0.2,0-0.4,0.1-0.4,0.3c0,0.1-0.1,0.3-0.1,0.5c-0.1,0-0.1,0.1-0.1,0.2
		c0,0.1,0,0.3-0.1,0.4c-1.1,4.2-1.5,9.9-1.5,15c0,6.1,0.5,11.3,0.6,12.5c-0.3,0.3-0.6,0.5-0.9,0.6c-0.3,0.1-0.6,0.2-0.9,0.2
		c-0.5,0-1-0.2-1.3-0.4c-0.2-0.1-0.3-0.2-0.4-0.3c0,0,0,0,0,0c-1.9-7.9-2.4-15.9-2.4-22.5c0-4.8,0.3-8.9,0.6-11.8
		c0.1-1.1,0.2-1.9,0.3-2.7c1.9-0.6,4-0.8,5.9-0.8c0,0,0,0,0,0c0,0,0,0.4,0,1c0,0.3,0.1,0.7,0.1,1.1L29.1,14.2z"/>
</g>
</svg>
